<?xml version="1.0" encoding="iso-8859-1"?>
<!-- Generator: Adobe Illustrator 16.0.0, SVG Export Plug-In . SVG Version: 6.00 Build 0)  -->
<!DOCTYPE svg PUBLIC "-//W3C//DTD SVG 1.1//EN" "http://www.w3.org/Graphics/SVG/1.1/DTD/svg11.dtd">
<svg version="1.1" id="Capa_1" xmlns="http://www.w3.org/2000/svg" xmlns:xlink="http://www.w3.org/1999/xlink" x="0px" y="0px"
	 width="29.323px" height="29.323px" viewBox="0 0 29.323 29.323" style="enable-background:new 0 0 29.323 29.323;"
	 xml:space="preserve">
<g>
	<path d="M22.561,10.197c0,0,1.886-1.462,4.344-0.373c-3.785-3.985-5.398-0.993-5.398-0.993s-2.08-3.303-5.484-3.04
		c-1.968-1.642-5.04-1.594-5.04-1.594s0.186-3.411,2.854-4.093c-3.724-0.835-6.019,3.639-6.019,3.639S6.204,0.087,2.418,4.955
		c2.458-1.329,4.344,0.456,4.344,0.456s-3.475,1.061-4.095,5.98c1.303-1.97,4.219-3.024,4.219-3.024s-1.799,2.426,0,7.276
		c0.153-2.893,2.11-6.974,2.11-6.974s0.051,0.021,0.124,0.051c1.312,2.327,2.915,6.834,2.08,15.385
		c-3.179,0.471-5.338,1.389-5.338,2.441c0,1.532,4.552,2.775,10.167,2.775s10.167-1.243,10.167-2.775c0-1.12-2.44-2.083-5.947-2.521
		c-0.694-5.633-0.235-8.833,0.345-10.676c0.541,1.009,1.725,3.401,1.842,5.223c1.8-3.973,0-5.957,0-5.957s2.916,0.863,4.22,2.476
		C26.036,11.065,22.561,10.197,22.561,10.197z M15.766,12.783c-0.608,0.534-1.232,1.187-1.715,1.916
		c-0.487-1.18-1.031-2.239-1.596-3.178c0.439-0.175,0.885-0.302,1.326-0.384C14.584,11.66,15.307,12.224,15.766,12.783z
		 M15.312,10.986c1.448-0.023,2.55,0.266,2.55,0.266s-0.9,0.52-1.909,1.373C15.813,12.053,15.586,11.504,15.312,10.986z
		 M18.71,13.459c-1.25,1.748-2.509,4.366-2.965,7.895c-0.239-2.142-0.724-4.076-1.354-5.786
		C15.617,14.74,17.413,13.966,18.71,13.459z M17.126,7.154c-0.185-0.359-0.414-0.673-0.67-0.95c1.742,0.932,1.884,3,1.884,3
		s-1.947-0.021-3.735,0.646C13.245,7.955,11.46,6.7,11.46,6.7S14.504,5.714,17.126,7.154z M11.251,9.709
		c0.574,0.287,1.196,0.62,1.808,0.982c-0.258,0.201-0.488,0.433-0.686,0.695C12.001,10.776,11.625,10.211,11.251,9.709z
		 M23.639,25.469c0,0.788-3.408,1.427-7.609,1.427c-4.203,0-7.611-0.639-7.611-1.427c0-0.441,1.073-0.837,2.755-1.099
		c-0.025,0.241-0.043,0.473-0.072,0.72v0.001l0,0c0.004,0.395,2.081,0.712,4.643,0.712c2.562,0,4.641-0.317,4.645-0.712l0,0V25.09
		c-0.039-0.276-0.072-0.539-0.106-0.805C22.307,24.542,23.639,24.976,23.639,25.469z"/>
</g>
<g>
</g>
<g>
</g>
<g>
</g>
<g>
</g>
<g>
</g>
<g>
</g>
<g>
</g>
<g>
</g>
<g>
</g>
<g>
</g>
<g>
</g>
<g>
</g>
<g>
</g>
<g>
</g>
<g>
</g>
</svg>
